<svg xmlns="http://www.w3.org/2000/svg" width="461" height="442" viewBox="0 0 461 442" version="1.1">
	<path d="M 205.252 14.210 C 191.100 15.647, 168.034 22.917, 151.396 31.185 C 134.959 39.352, 122.934 49.302, 113.381 62.638 C 105.942 73.023, 96.102 95.514, 88.531 119.437 C 85.101 130.275, 78.559 141.420, 69.006 152.697 C 60.677 162.530, 52.711 168.108, 42.771 171.068 C 38.543 172.327, 36.028 173.582, 36.272 174.311 C 36.491 174.965, 34.982 177.975, 32.919 181 C 18.701 201.845, 18.930 212.677, 33.870 225.954 C 37.685 229.345, 41.264 233.330, 41.823 234.810 C 42.381 236.289, 43.075 242.969, 43.365 249.652 C 43.667 256.620, 44.491 263.239, 45.297 265.168 C 47.340 270.059, 52.778 274.361, 63.521 279.587 C 68.734 282.123, 73 284.551, 73 284.981 C 73 285.411, 69.062 286.067, 64.250 286.437 C 59.437 286.808, 52.995 287.579, 49.933 288.150 C 44.717 289.123, 44.125 289.025, 40.544 286.594 C 38.441 285.167, 35.419 284, 33.828 284 C 26.869 284, 20.130 289.498, 17.878 297.012 C 16.342 302.139, 18.774 308.939, 24.044 314.250 C 27.332 317.564, 28.333 318, 32.650 318 C 36.214 318, 38.531 317.323, 41.215 315.500 C 43.775 313.761, 46.245 313, 49.337 313 C 55.205 313, 70.876 316.248, 84.363 320.258 L 95.226 323.489 94.564 329.994 C 94.200 333.573, 93.695 337.400, 93.441 338.500 C 92.465 342.734, 93.785 343.079, 115.097 344.149 C 126.319 344.713, 135.654 345.327, 135.843 345.513 C 136.031 345.699, 133.945 352.748, 131.206 361.176 C 125.594 378.450, 123 391.704, 123 403.111 C 123 407.378, 122.567 412.008, 122.039 413.398 C 121.510 414.789, 120.768 421.793, 120.389 428.963 C 119.770 440.688, 119.867 442, 121.350 442 C 122.749 442, 123.001 440.746, 123.009 433.750 C 123.013 429.212, 123.304 423.115, 123.654 420.201 C 124.199 415.664, 124.709 414.685, 127.198 413.398 L 130.105 411.894 129.404 426.947 C 128.799 439.949, 128.907 442, 130.198 442 C 131.429 442, 131.814 439.309, 132.380 426.766 C 132.758 418.388, 133.390 411.210, 133.784 410.816 C 135.230 409.370, 163.712 397.825, 170.500 395.933 C 187.806 391.109, 194.009 390.498, 223.500 390.706 C 256.720 390.942, 281.231 393.369, 294.942 397.783 C 304.595 400.890, 306.906 402.866, 317.987 417.500 C 321.735 422.450, 326.639 428.300, 328.884 430.500 C 332.211 433.760, 332.969 435.194, 332.983 438.250 C 332.995 440.909, 333.436 442, 334.500 442 C 335.325 442, 336 441.153, 336 440.117 C 336 438.365, 336.272 438.328, 339.900 439.578 C 347.610 442.234, 360.144 438.530, 376.244 428.838 C 379.953 426.605, 384.382 423.190, 386.086 421.249 C 388.907 418.036, 389.125 417.306, 388.514 413.110 C 387.535 406.378, 383.704 400.494, 374.586 391.715 C 365.859 383.313, 358.673 378.078, 351.826 375.134 C 347.622 373.327, 331.939 358.092, 324.283 348.377 L 321.066 344.295 329.783 341.696 C 334.577 340.266, 341.425 338.339, 345 337.412 C 354.262 335.012, 355.636 333.925, 356.909 327.987 C 357.509 325.190, 358 321.625, 358 320.066 C 358 318.219, 358.785 316.726, 360.250 315.787 C 364.164 313.275, 400.412 297.993, 402.446 297.997 C 403.517 297.999, 406.064 299.159, 408.108 300.575 C 412.790 303.819, 421.295 304.347, 425.414 301.648 C 430.461 298.341, 432.140 294.302, 431.786 286.313 C 431.417 277.997, 429.485 275.070, 422.201 271.796 C 417.277 269.582, 413.729 269.969, 407.500 273.398 C 403.759 275.457, 402.956 275.532, 395.094 274.550 L 386.688 273.500 390.970 269.638 C 393.326 267.514, 399.678 262.905, 405.085 259.396 C 416.578 251.938, 420.914 247.874, 423.850 241.810 C 426.817 235.682, 427.387 229.971, 426.095 219.343 C 425.014 210.453, 425.558 204.987, 428.586 194.291 C 429.145 192.318, 428.268 191.634, 420.356 187.876 C 397.410 176.978, 385.182 166.316, 375.568 148.826 C 373.580 145.209, 369.250 134.431, 365.945 124.875 C 357.721 101.098, 347.681 81.424, 334.778 63.799 C 329.714 56.882, 326.874 54.098, 320.929 50.217 C 316.816 47.531, 311.887 43.984, 309.975 42.333 C 293.707 28.283, 264.870 16.397, 241.169 13.973 C 230.860 12.918, 217.078 13.009, 205.252 14.210 M 205 25.405 C 193.023 27.533, 183.285 30.511, 170.126 36.069 C 155.202 42.372, 148.430 46.785, 137.009 57.654 C 125.915 68.211, 121.310 74.206, 114.420 87.059 C 105.208 104.246, 101.205 124.561, 102.333 148.407 C 103.037 163.291, 103.266 164.457, 109.913 187 C 114.433 202.329, 115.670 207.375, 118.126 220.500 C 118.755 223.861, 118.665 228.777, 117.852 235.500 C 117.187 241, 116.611 250.900, 116.572 257.500 C 116.512 267.432, 116.832 270.169, 118.425 273.378 C 121.014 278.596, 130.377 287.617, 136.376 290.676 C 144.965 295.054, 165.366 301.721, 178.627 304.483 C 190.545 306.965, 202.291 310.093, 212.785 313.577 C 219.017 315.646, 226.832 315.329, 237.819 312.560 C 243.143 311.219, 254.700 308.687, 263.500 306.935 C 282.050 303.242, 289.743 300.695, 303.347 293.745 C 313.332 288.644, 323.828 280.169, 326.452 275.089 C 328.106 271.887, 329.676 260.906, 330.505 246.744 C 330.851 240.829, 331.290 234.979, 331.480 233.744 C 331.670 232.510, 332.113 226.550, 332.466 220.500 C 332.818 214.450, 333.561 207.700, 334.117 205.500 C 336.508 196.052, 342.292 178.309, 343.698 176.112 C 345.012 174.059, 345.159 169.434, 344.743 143.080 L 344.260 112.436 340.533 101.468 C 335.856 87.707, 333.150 82.686, 325.875 74.273 C 321.127 68.781, 319.941 66.670, 319.284 62.538 C 318.490 57.552, 318.439 57.494, 314.335 56.945 C 310.020 56.368, 306.274 54.210, 294.500 45.519 C 290.650 42.677, 285.475 39.200, 283 37.793 C 277.333 34.570, 261.429 29.461, 249.019 26.878 C 236.740 24.322, 215.156 23.600, 205 25.405 M 266.250 173.623 C 260.214 179, 258.812 181, 261.079 181 C 262.759 181, 274 170.865, 274 169.350 C 274 167.127, 272.799 167.789, 266.250 173.623 M 180 172.273 C 180 172.973, 181.567 174.389, 183.482 175.420 C 185.397 176.451, 187.657 178.354, 188.505 179.648 C 190.167 182.184, 192.021 182.775, 191.967 180.750 C 191.917 178.874, 188.731 175.416, 184.903 173.082 C 180.953 170.674, 180 170.517, 180 172.273 M 151.313 178.443 C 145.654 180.212, 132.028 188.195, 132.012 189.750 C 131.994 191.573, 132.636 191.366, 139.021 187.487 C 150.147 180.729, 153.658 179.602, 163.500 179.635 C 170.200 179.657, 173.394 180.129, 176 181.481 C 181.262 184.211, 193.689 194.665, 195.680 198.035 C 197.485 201.091, 198.482 201.646, 199.425 200.121 C 200.943 197.665, 184.695 182.602, 176.500 178.867 C 171.672 176.667, 157.744 176.432, 151.313 178.443 M 278 178.727 C 270.306 181.411, 257 191.533, 257 194.703 C 257 196.684, 258.832 196.248, 260.242 193.932 C 260.934 192.794, 264.200 189.951, 267.500 187.614 C 277.498 180.534, 283.851 178.718, 293.831 180.091 C 301.923 181.204, 313.770 186.750, 317.483 191.162 C 319.282 193.300, 320.437 193.963, 321.140 193.260 C 322.563 191.837, 316.218 185.651, 310.217 182.611 C 299.204 177.035, 287.054 175.570, 278 178.727 M 103.162 197.856 C 101.340 205.360, 98.757 214.164, 97.424 217.420 C 96.091 220.676, 95 224.568, 95 226.069 C 95 231.778, 107.528 246, 112.557 246 C 113.890 246, 115.160 239.183, 115.207 231.778 C 115.257 223.751, 111.931 202.457, 109.201 193.325 L 106.477 184.212 103.162 197.856 M 163.500 184.671 C 162.400 184.895, 160.591 185.268, 159.481 185.500 C 156.477 186.128, 148.414 193.930, 146.059 198.485 C 142.174 206.003, 143.856 215.856, 150.088 222.088 L 154.046 226.046 150.273 224.472 C 148.198 223.606, 145.003 222.015, 143.173 220.937 C 139.961 219.044, 137.345 219.132, 138.557 221.091 C 139.819 223.135, 150.960 227.905, 157.069 229.018 C 163.598 230.208, 171.889 229.769, 179.750 227.818 C 183.627 226.855, 185.652 225, 182.826 225 C 182.180 225, 182.580 223.988, 183.715 222.750 C 186.340 219.889, 191.002 210.624, 190.994 208.283 C 190.975 201.988, 182.700 189.912, 176.144 186.610 C 173.126 185.090, 166.461 184.068, 163.500 184.671 M 281.746 185.047 C 270.503 186.912, 261.987 196.025, 261.190 207.045 C 260.854 211.693, 261.215 213.800, 262.900 217.034 C 264.075 219.288, 264.808 221.501, 264.529 221.953 C 263.804 223.127, 265.891 224.546, 270.500 226.011 C 272.700 226.711, 274.860 227.894, 275.300 228.641 C 276.947 231.441, 297.494 229.325, 306.927 225.385 C 311.760 223.367, 309.671 221.671, 304.486 223.404 C 302.294 224.136, 299.150 225.039, 297.500 225.410 L 294.500 226.084 297.589 224.155 C 307.056 218.241, 310.352 204.589, 304.908 193.845 C 302.445 188.984, 298.853 186.308, 293.721 185.510 C 291.399 185.149, 288.825 184.720, 288 184.556 C 287.175 184.392, 284.361 184.613, 281.746 185.047 M 339.781 195.666 C 336.213 207.887, 336.243 207.705, 335.016 224.500 C 334.413 232.750, 333.715 240.963, 333.465 242.750 C 332.812 247.424, 334.684 246.988, 343.607 240.388 C 348.562 236.724, 351.682 233.612, 352.598 231.421 C 354.278 227.399, 354.393 218.971, 352.914 208.333 C 351.637 199.154, 350.298 195.861, 345.730 190.666 L 342.360 186.832 339.781 195.666 M 233.455 233.458 C 232.380 234.271, 232.048 234.951, 232.719 234.968 C 233.389 234.986, 233.678 235.675, 233.362 236.500 C 232.968 237.525, 233.419 238, 234.786 238 C 237.296 238, 238.512 235.084, 236.741 233.313 C 235.632 232.203, 235.082 232.227, 233.455 233.458 M 215.775 233.558 C 215.469 233.865, 215.446 234.990, 215.725 236.058 C 216.264 238.117, 219.442 238.712, 220.527 236.956 C 221.800 234.896, 217.508 231.826, 215.775 233.558 M 257 247.109 C 249.762 250.809, 241.192 251.897, 221 251.679 C 204.624 251.501, 204.448 251.476, 197.638 248.250 C 187.618 243.505, 187.589 243.519, 188.304 252.780 C 188.961 261.301, 193.299 275.422, 197.421 282.455 C 198.823 284.848, 202.219 288.596, 204.966 290.783 C 209.613 294.484, 210.535 294.806, 218.230 295.415 C 231.192 296.441, 238.054 295.978, 242.392 293.783 C 255.874 286.963, 266 267.890, 266 249.316 C 266 243.003, 265.345 242.842, 257 247.109 M 409.419 275.554 C 404.531 278.091, 404.431 278.100, 393.645 276.908 C 387.416 276.220, 378.452 275.974, 372.609 276.332 C 363.203 276.907, 359.801 277.564, 352.939 280.129 L 350.378 281.086 353.674 294.793 C 355.487 302.332, 357.204 309.713, 357.490 311.195 L 358.010 313.890 364.755 310.829 C 368.465 309.145, 374.875 306.284, 379 304.469 C 383.125 302.655, 389.588 299.783, 393.362 298.085 C 401.750 294.314, 404.145 294.246, 408.609 297.651 C 413.541 301.413, 420.509 301.979, 424.371 298.930 C 432.295 292.676, 431.551 279.926, 422.981 275.109 C 418.091 272.361, 415.400 272.449, 409.419 275.554 M 24.965 290.799 C 20.155 295.610, 19.032 300.527, 21.496 305.990 C 25.789 315.511, 33.240 318.105, 40.466 312.594 C 44.021 309.883, 44.581 309.767, 51.180 310.380 C 59.929 311.193, 73.709 314.231, 85.927 318.040 C 91.112 319.657, 95.491 320.842, 95.658 320.675 C 95.826 320.508, 96.630 316.884, 97.445 312.623 C 98.260 308.362, 100.075 301.459, 101.477 297.284 C 102.879 293.109, 103.845 289.512, 103.623 289.290 C 102.734 288.401, 87.070 287.330, 80.500 287.708 C 71.633 288.219, 49.149 290.740, 46.475 291.523 C 45.187 291.900, 43.077 291.184, 40.680 289.558 C 34.861 285.609, 29.752 286.013, 24.965 290.799 M 158.599 303.250 C 160.998 307.431, 171.737 319.448, 180.874 328.174 C 194.304 341, 208.380 352.273, 222.729 361.694 C 236.323 370.619, 267.343 386.641, 272.659 387.484 C 274.771 387.819, 278.750 388.931, 281.500 389.955 C 284.250 390.979, 290.775 393.290, 296 395.091 C 306.860 398.833, 308.560 400.275, 320.377 415.768 C 324.460 421.121, 330.480 428.122, 333.756 431.326 C 340.788 438.205, 344.185 439.093, 353.928 436.597 C 360.980 434.790, 378.040 425.634, 383.019 420.983 C 386.011 418.187, 386.217 417.599, 385.649 413.458 C 385.311 410.987, 384.313 407.572, 383.432 405.868 C 381.470 402.074, 374.994 394.956, 369.666 390.735 L 365.702 387.596 366.370 391.159 C 367.499 397.178, 365.316 404.657, 361.604 407.488 C 357.590 410.550, 349.479 412.500, 344.581 411.581 C 340.385 410.794, 307 394.383, 307 393.107 C 307 392.651, 304.761 392.013, 302.025 391.689 C 288.779 390.121, 244.923 368.356, 216.737 349.363 C 199.167 337.523, 194.642 333.845, 177.150 317.175 C 169.257 309.654, 162.057 303.194, 161.150 302.820 C 158.581 301.762, 157.819 301.890, 158.599 303.250 M 322.459 352.958 C 322.782 354.901, 325.150 359.173, 327.867 362.710 C 333.761 370.386, 343.779 381, 345.130 381 C 349.316 381, 336.212 387.567, 329 389.084 C 319.956 390.985, 311.808 391.999, 310.762 391.353 C 310.106 390.947, 309.984 391.166, 310.450 391.918 C 310.867 392.593, 318.408 396.713, 327.209 401.073 C 345.041 409.908, 349.484 410.779, 357.691 407.053 C 361.235 405.445, 362.061 404.489, 363.036 400.868 C 363.727 398.300, 363.924 394.115, 363.528 390.416 L 362.867 384.246 357.835 381.507 C 353.679 379.245, 352.392 378.956, 350.438 379.846 C 348.203 380.865, 345.931 379.779, 347.835 378.602 C 348.312 378.307, 345.280 374.564, 341.097 370.283 C 336.914 366.002, 330.881 359.575, 327.689 356 C 321.910 349.528, 321.888 349.515, 322.459 352.958 M 326.265 367.036 C 326.588 368.391, 327.638 373.212, 328.597 377.750 C 329.556 382.288, 330.826 385.980, 331.420 385.955 C 332.014 385.930, 334.449 384.890, 336.830 383.644 C 340.819 381.556, 341.023 381.264, 339.418 379.939 C 338.459 379.147, 334.976 375.366, 331.676 371.536 C 327.386 366.558, 325.844 365.274, 326.265 367.036 M 350.500 392.155 C 343.740 395.852, 344.946 405, 352.194 405 C 355.299 405, 360 401.476, 360 399.147 C 360 398.208, 358.464 395.991, 356.586 394.220 C 352.711 390.564, 353.141 390.710, 350.500 392.155 M 349.039 396.928 C 346.904 400.917, 350.973 404.283, 354.937 401.807 C 357.745 400.054, 357.531 397.563, 354.453 396.161 C 350.986 394.581, 350.238 394.687, 349.039 396.928" stroke="none" fill="black" fill-rule="evenodd"/>
</svg>